<svg width="63" height="68" viewBox="0 0 63 68" fill="none" xmlns="http://www.w3.org/2000/svg">
<path d="M42.1903 13.7251C34.3417 8.95 38.0222 2.21025 38.1803 1.93011C38.4094 1.53144 38.4086 1.04097 38.1783 0.642997C37.948 0.245021 37.5231 0 37.0633 0C33.0232 0 29.8594 1.1479 27.6601 3.412C23.902 7.28046 24.0763 13.3014 24.1508 15.8724C24.1591 16.1573 24.1662 16.4033 24.1662 16.5862C24.1662 18.4952 24.4724 20.2575 24.7427 21.8124C24.9169 22.8145 25.0672 23.6798 25.094 24.36C25.1226 25.0885 24.9896 25.2553 24.984 25.262C24.965 25.2846 24.8069 25.3686 24.3798 25.3686C23.8925 25.3686 23.5333 25.2094 23.2149 24.8526C21.9717 23.4584 21.8857 19.6521 22.1235 17.5812C22.166 17.216 22.0505 16.8502 21.806 16.5757C21.5615 16.3012 21.2115 16.1442 20.844 16.1442C17.4993 16.1442 15 21.6139 15 26.5043C15 28.8033 15.4625 31.0553 16.3745 33.1979C17.2561 35.2693 18.5133 37.1386 20.1113 38.7542C23.4392 42.1186 27.8271 43.9715 32.4667 43.9715C37.1251 43.9715 41.5119 42.1448 44.8192 38.8281C48.1179 35.5198 49.9346 31.1432 49.9346 26.5041C49.9346 20.5851 45.3033 15.619 42.1903 13.7251Z" fill="#E84029"/>
<path d="M33.6121 26.6535L35.7356 23.387C36.0195 22.949 35.899 22.3622 35.4652 22.0755C35.0313 21.7889 34.4502 21.9106 34.1664 22.3487L32.49 24.931L32.4686 24.8959L32.4418 24.9364L30.76 22.3487C30.4762 21.9106 29.8951 21.7889 29.4613 22.0755C29.0274 22.3622 28.9069 22.949 29.1908 23.387L31.3197 26.6616L20.8223 42.8128H25.597C25.8568 42.8128 26.1165 42.7695 26.3602 42.6803C30.2057 41.2742 31.6812 36.9207 32.2061 34.6169C32.2703 34.3357 32.664 34.3357 32.7283 34.6169C33.2505 36.918 34.7287 41.2715 38.5742 42.6803C38.8179 42.7695 39.0776 42.8128 39.3374 42.8128H44.1121L33.6121 26.6535Z" fill="white"/>
<path d="M2.83347 63.1401H1.27177V53.5064H6.70807V54.8374H2.83347V57.8488H6.46426V59.1865H2.83347V63.1401ZM9.83806 63.1401H8.28954V55.8522H9.83806V63.1401ZM8.19728 53.9215C8.19728 53.6447 8.27197 53.4317 8.42133 53.2823C8.57508 53.1329 8.79253 53.0583 9.07368 53.0583C9.34605 53.0583 9.55691 53.1329 9.70627 53.2823C9.86002 53.4317 9.9369 53.6447 9.9369 53.9215C9.9369 54.1851 9.86002 54.3937 9.70627 54.5475C9.55691 54.6968 9.34605 54.7715 9.07368 54.7715C8.79253 54.7715 8.57508 54.6968 8.42133 54.5475C8.27197 54.3937 8.19728 54.1851 8.19728 53.9215ZM15.7554 55.7204C16.0673 55.7204 16.3243 55.7424 16.5264 55.7863L16.3748 57.2294C16.1552 57.1767 15.9267 57.1503 15.6895 57.1503C15.0701 57.1503 14.5671 57.3524 14.1805 57.7566C13.7983 58.1607 13.6072 58.6857 13.6072 59.3314V63.1401H12.0587V55.8522H13.2712L13.4754 57.1371H13.5545C13.7961 56.7022 14.1102 56.3574 14.4968 56.1026C14.8878 55.8478 15.3073 55.7204 15.7554 55.7204ZM21.0665 63.2719C19.9331 63.2719 19.0457 62.9425 18.4044 62.2835C17.7674 61.6202 17.4489 60.7086 17.4489 59.5489C17.4489 58.3584 17.7454 57.4227 18.3385 56.7418C18.9315 56.0609 19.7464 55.7204 20.7831 55.7204C21.7452 55.7204 22.5052 56.0125 23.0631 56.5968C23.621 57.1811 23.9 57.985 23.9 59.0085V59.8454H19.0435C19.0655 60.5527 19.2566 61.0974 19.6168 61.4796C19.977 61.8574 20.4844 62.0463 21.139 62.0463C21.5695 62.0463 21.9693 62.0068 22.3383 61.9277C22.7117 61.8442 23.1114 61.708 23.5375 61.5191V62.7777C23.1597 62.9578 22.7776 63.0852 22.391 63.1599C22.0044 63.2346 21.5629 63.2719 21.0665 63.2719ZM20.7831 56.8933C20.2911 56.8933 19.8958 57.0493 19.597 57.3612C19.3027 57.6731 19.127 58.1278 19.0699 58.7252H22.3778C22.369 58.1234 22.224 57.6687 21.9429 57.3612C21.6617 57.0493 21.2752 56.8933 20.7831 56.8933Z" fill="#E84029"/>
<path d="M33.1779 63.1401H31.3526L28.3281 58.7779L27.399 59.5357V63.1401H25.8241V53.5064H27.399V58.1058C27.8295 57.5786 28.2578 57.0712 28.6839 56.5836L31.2867 53.5064H33.0791C31.3966 55.4832 30.1907 56.8911 29.4615 57.7302L33.1779 63.1401ZM38.8514 63.1401L38.5417 62.1254H38.489C38.1376 62.5691 37.7839 62.8722 37.4281 63.0347C37.0723 63.1929 36.6154 63.2719 36.0575 63.2719C35.3415 63.2719 34.7814 63.0786 34.3772 62.6921C33.9774 62.3055 33.7776 61.7585 33.7776 61.0513C33.7776 60.3001 34.0565 59.7334 34.6144 59.3512C35.1723 58.969 36.0224 58.7603 37.1645 58.7252L38.4231 58.6857V58.2969C38.4231 57.8312 38.3133 57.4842 38.0937 57.2558C37.8784 57.0229 37.5423 56.9065 37.0855 56.9065C36.7121 56.9065 36.354 56.9614 36.0114 57.0712C35.6687 57.1811 35.3393 57.3107 35.023 57.46L34.5222 56.353C34.9175 56.1465 35.3502 55.9906 35.8203 55.8851C36.2903 55.7753 36.734 55.7204 37.1514 55.7204C38.0783 55.7204 38.7768 55.9225 39.2468 56.3266C39.7212 56.7308 39.9585 57.3656 39.9585 58.231V63.1401H38.8514ZM36.5451 62.0858C37.1074 62.0858 37.5577 61.9299 37.896 61.618C38.2386 61.3017 38.4099 60.8602 38.4099 60.2935V59.6609L37.4742 59.7004C36.745 59.7268 36.2135 59.8498 35.8796 60.0694C35.5501 60.2847 35.3854 60.6164 35.3854 61.0645C35.3854 61.3895 35.482 61.6421 35.6753 61.8222C35.8686 61.998 36.1585 62.0858 36.5451 62.0858ZM48.2612 63.1401H46.7061V58.6461C46.7061 58.0882 46.6006 57.6731 46.3898 57.4007C46.1789 57.124 45.8494 56.9856 45.4014 56.9856C44.8039 56.9856 44.3646 57.1811 44.0835 57.572C43.8067 57.9586 43.6683 58.6044 43.6683 59.5093V63.1401H42.1198V55.8522H43.3323L43.5497 56.8077H43.6288C43.8309 56.4606 44.123 56.1927 44.5052 56.0038C44.8918 55.8149 45.3157 55.7204 45.777 55.7204C46.8972 55.7204 47.6396 56.1026 48.0042 56.867H48.1096C48.3249 56.5067 48.628 56.2256 49.019 56.0235C49.4099 55.8214 49.858 55.7204 50.3632 55.7204C51.233 55.7204 51.8656 55.9401 52.261 56.3794C52.6607 56.8187 52.8606 57.4886 52.8606 58.3891V63.1401H51.3121V58.6461C51.3121 58.0882 51.2045 57.6731 50.9892 57.4007C50.7784 57.124 50.4489 56.9856 50.0008 56.9856C49.399 56.9856 48.9575 57.1745 48.6763 57.5523C48.3996 57.9257 48.2612 58.5012 48.2612 59.2787V63.1401ZM58.7187 63.2719C57.7961 63.2719 57.0801 62.9403 56.5705 62.2769H56.4782C56.5397 62.8919 56.5705 63.2653 56.5705 63.3971V66.3821H55.022V55.8522H56.274C56.3091 55.9884 56.3816 56.3135 56.4914 56.8274H56.5705C57.0537 56.0894 57.7786 55.7204 58.745 55.7204C59.6544 55.7204 60.3616 56.0499 60.8668 56.7088C61.3764 57.3678 61.6312 58.2925 61.6312 59.483C61.6312 60.6735 61.372 61.6026 60.8536 62.2703C60.3397 62.9381 59.628 63.2719 58.7187 63.2719ZM58.3431 56.9856C57.728 56.9856 57.2778 57.1657 56.9922 57.5259C56.7111 57.8861 56.5705 58.4616 56.5705 59.2524V59.483C56.5705 60.3704 56.7111 61.0139 56.9922 61.4137C57.2734 61.8091 57.7324 62.0068 58.3694 62.0068C58.9054 62.0068 59.3183 61.7871 59.6082 61.3478C59.8982 60.9085 60.0431 60.2825 60.0431 59.4698C60.0431 58.6527 59.8982 58.0355 59.6082 57.6182C59.3227 57.1964 58.901 56.9856 58.3431 56.9856Z" fill="#302E2D"/>
</svg>
